<?xml version="1.0" standalone="no"?>
<!DOCTYPE svg PUBLIC "-//W3C//DTD SVG 20010904//EN"
 "http://www.w3.org/TR/2001/REC-SVG-20010904/DTD/svg10.dtd">
<svg version="1.0" xmlns="http://www.w3.org/2000/svg"
 width="512.000000pt" height="512.000000pt" viewBox="0 0 512.000000 512.000000"
 preserveAspectRatio="xMidYMid meet">
<metadata>
Created by potrace 1.11, written by Peter Selinger 2001-2013
</metadata>
<g transform="translate(0.000000,512.000000) scale(0.100000,-0.100000)"
fill="#000000" stroke="none">
<path d="M1751 5104 c-272 -73 -409 -365 -296 -628 40 -92 139 -187 235 -224
86 -33 101 -36 174 -36 l68 -1 113 -250 c63 -137 137 -302 165 -365 29 -63 58
-127 66 -142 19 -36 18 -41 -14 -60 -43 -26 -150 -136 -191 -197 -39 -59 -80
-142 -100 -203 -10 -29 -16 -36 -34 -33 -12 2 -62 6 -112 10 -49 3 -108 8
-130 10 -22 3 -71 7 -110 9 -71 5 -209 17 -234 21 -8 1 -20 24 -27 53 -13 49
-52 142 -64 152 -3 3 -16 21 -27 40 -51 84 -180 181 -295 222 -87 31 -267 35
-355 9 -222 -67 -398 -263 -428 -476 -7 -52 -8 -166 -1 -200 27 -137 73 -222
171 -320 121 -121 251 -177 410 -177 245 0 456 133 554 349 13 28 29 50 35 48
6 -2 47 -6 91 -9 160 -12 231 -17 260 -21 17 -3 75 -7 130 -11 55 -4 106 -8
114 -9 10 -1 23 -35 38 -94 26 -104 58 -177 115 -263 42 -63 137 -161 193
-199 19 -13 34 -27 32 -31 -1 -4 -54 -137 -117 -296 l-115 -289 -95 3 c-240 8
-440 -80 -600 -263 -47 -53 -129 -186 -130 -211 -1 -4 -10 -36 -21 -72 -38
-121 -32 -315 14 -446 79 -219 238 -379 462 -462 137 -51 342 -52 479 -3 81
29 156 64 156 73 0 4 5 8 11 8 13 0 80 51 124 95 131 130 212 309 220 489 13
251 -87 475 -283 636 l-43 35 118 293 118 294 140 3 c152 2 216 15 323 65 118
55 228 142 307 243 l30 37 200 -98 c110 -54 232 -114 271 -132 l72 -34 -1 -71
c0 -205 130 -374 322 -419 127 -30 252 -2 355 78 66 51 84 73 118 141 123 246
-10 529 -282 600 -116 30 -274 -10 -370 -94 -19 -17 -40 -31 -46 -31 -6 0
-132 59 -278 130 -248 121 -267 132 -261 153 21 74 27 113 30 212 2 97 -18
209 -55 304 -12 30 -17 57 -13 61 4 4 71 54 148 111 77 57 147 110 155 116 8
7 89 67 178 134 l164 121 81 -40 c45 -22 102 -46 125 -52 57 -15 184 -15 245
-1 59 14 164 61 194 88 12 10 34 28 48 39 36 25 109 129 135 188 20 48 51 199
45 220 -2 6 -6 36 -9 67 -13 139 -104 287 -226 368 -187 126 -416 129 -600 10
-69 -45 -140 -116 -167 -169 -10 -19 -23 -42 -29 -50 -45 -58 -64 -258 -35
-363 l17 -63 -154 -115 c-84 -63 -162 -121 -172 -129 -10 -8 -65 -49 -121 -90
-56 -41 -107 -79 -113 -85 -6 -5 -32 -24 -56 -41 l-45 -32 -31 27 c-55 46 -68
55 -131 89 -53 28 -172 75 -181 72 -1 -1 -28 4 -59 11 -57 11 -237 7 -295 -7
-27 -6 -29 -3 -63 72 -20 44 -102 225 -183 404 -146 321 -148 325 -129 345 31
32 83 117 95 155 26 82 29 99 27 170 -5 159 -79 286 -216 372 -30 19 -74 40
-99 47 -67 20 -186 22 -249 5z"/>
</g>
</svg>
