<?xml version="1.0" standalone="no"?>
<!DOCTYPE svg PUBLIC "-//W3C//DTD SVG 20010904//EN"
 "http://www.w3.org/TR/2001/REC-SVG-20010904/DTD/svg10.dtd">
<svg version="1.0" xmlns="http://www.w3.org/2000/svg"
 width="691.000000pt" height="691.000000pt" viewBox="0 0 691.000000 691.000000"
 preserveAspectRatio="xMidYMid meet">
<metadata>
Created by potrace 1.11, written by Peter Selinger 2001-2013
</metadata>
<g transform="translate(0.000000,691.000000) scale(0.100000,-0.100000)"
fill="#000000" stroke="none">
<path d="M3325 6898 c-119 -22 -261 -80 -362 -149 -114 -78 -235 -225 -298
-363 -58 -125 -80 -235 -78 -387 l1 -97 -469 -181 -470 -182 -52 57 c-104 114
-275 218 -422 257 -167 44 -342 40 -505 -13 -297 -95 -530 -350 -596 -652 -9
-40 -20 -81 -25 -90 -12 -24 -12 -178 1 -178 6 0 10 -8 10 -17 0 -15 -2 -16
-10 -3 -5 8 -10 10 -10 4 0 -5 4 -14 9 -20 5 -5 11 -27 14 -49 3 -22 16 -71
28 -110 89 -290 337 -524 634 -601 75 -19 289 -26 377 -11 58 9 179 46 194 58
14 11 6 24 189 -296 76 -132 146 -254 156 -271 l18 -30 -134 -195 c-73 -107
-182 -264 -241 -349 l-108 -156 -60 13 c-66 14 -224 19 -296 9 -374 -52 -696
-359 -752 -718 -7 -43 -15 -72 -19 -67 -3 6 -7 -35 -7 -90 0 -75 2 -100 11
-94 7 4 5 -2 -3 -12 -9 -11 -10 -16 -2 -11 8 5 12 0 12 -17 0 -40 40 -179 71
-247 39 -84 106 -182 166 -245 115 -119 290 -220 434 -251 102 -21 136 -25
223 -23 248 4 445 89 625 269 l96 96 330 -153 c181 -85 367 -171 412 -193 46
-22 105 -49 133 -61 l49 -21 -6 -47 c-30 -202 24 -439 140 -610 135 -201 366
-355 582 -388 60 -9 256 -10 305 -2 128 23 232 64 337 132 267 172 419 462
408 777 -2 58 -6 119 -9 135 -22 105 -70 225 -125 315 l-29 47 31 28 c73 64
193 171 202 181 6 5 51 46 100 90 50 43 97 86 105 94 8 8 38 35 65 59 28 24
73 65 100 90 28 25 93 84 145 131 52 47 102 92 110 100 8 9 58 53 110 100 52
46 115 103 140 126 115 106 206 184 215 184 6 0 37 -13 70 -29 123 -60 256
-88 395 -85 141 3 234 24 357 80 225 102 405 301 476 529 45 143 44 408 -1
564 -72 249 -304 481 -567 566 -115 37 -288 51 -420 33 -104 -14 -224 -61
-362 -144 -17 -10 -33 -16 -35 -14 -2 3 -30 34 -63 70 -33 36 -98 107 -145
159 -47 52 -96 106 -110 121 -14 15 -59 64 -100 110 -41 46 -80 88 -85 94 -6
6 -62 67 -125 136 -63 69 -126 139 -141 155 -15 17 -38 42 -51 56 -13 14 -66
72 -118 129 -127 138 -131 143 -213 234 -40 44 -78 85 -84 92 -18 17 -17 20
16 67 44 65 87 156 110 232 30 103 33 119 36 242 5 159 -30 311 -101 439 -104
190 -266 334 -464 413 -74 29 -91 34 -195 51 -65 10 -216 9 -280 -2z m335
-278 c107 -36 180 -80 260 -160 122 -121 183 -266 183 -435 1 -102 -8 -154
-40 -235 -110 -276 -385 -437 -679 -396 -198 28 -385 165 -472 347 -40 83 -47
104 -61 205 -33 231 94 488 301 612 148 88 351 113 508 62z m-970 -1023 c0
-17 92 -145 140 -194 27 -29 50 -54 50 -57 0 -4 -235 -347 -532 -776 -33 -47
-65 -84 -71 -82 -7 2 -97 52 -202 111 -104 60 -209 118 -232 131 -23 13 -40
26 -38 30 14 22 31 166 29 245 -2 102 -11 153 -50 286 -5 18 -31 7 576 243
l295 114 17 -21 c10 -12 18 -26 18 -30z m-1629 13 c253 -48 457 -257 503 -515
8 -44 8 -164 1 -210 -25 -149 -121 -307 -243 -397 -350 -259 -836 -106 -978
308 -24 68 -28 95 -28 194 1 102 4 125 30 200 106 303 405 478 715 420z m2951
-329 c2 -4 38 -47 81 -93 118 -129 116 -128 207 -228 47 -51 90 -98 95 -104 6
-6 55 -61 111 -121 55 -61 118 -130 140 -154 21 -24 48 -53 59 -65 11 -12 63
-69 115 -126 105 -115 105 -114 210 -231 83 -91 185 -203 212 -231 16 -16 15
-21 -27 -89 -24 -39 -52 -93 -61 -120 -16 -43 -23 -52 -44 -51 -6 0 -179 12
-250 17 -25 2 -81 7 -125 10 -82 6 -133 10 -265 20 -41 3 -106 8 -145 11 -38
4 -78 6 -87 6 -13 -1 -18 11 -23 46 -30 224 -174 440 -369 551 -112 64 -208
90 -347 96 -208 8 -402 -69 -551 -219 -31 -31 -60 -56 -66 -56 -12 0 -22 5
-220 117 -73 42 -135 79 -137 83 -3 5 43 78 102 164 60 85 190 275 291 421
101 146 186 265 190 265 4 0 31 -9 59 -20 240 -91 535 -65 754 65 79 47 86 50
91 36z m-2251 -806 c33 -19 62 -35 64 -35 2 0 37 -20 79 -45 42 -24 106 -61
143 -81 38 -20 72 -40 77 -45 5 -4 -20 -50 -55 -101 -146 -215 -244 -356 -246
-355 -1 1 -66 115 -146 254 l-144 252 44 43 c24 24 60 67 80 96 20 28 38 52
40 52 3 0 32 -16 64 -35z m1854 -330 c247 -72 393 -342 324 -598 -53 -199
-247 -346 -456 -347 -43 -1 -87 1 -98 3 -151 34 -283 138 -346 272 -38 82 -49
136 -45 230 8 178 109 332 271 410 112 54 231 64 350 30z m-1197 -41 c193
-107 319 -179 330 -189 11 -10 11 -20 2 -51 -18 -61 -21 -259 -6 -329 20 -86
30 -113 65 -184 90 -181 260 -329 441 -382 41 -12 77 -24 80 -26 5 -5 8 -1143
2 -1160 -2 -7 -14 -13 -27 -13 -33 0 -147 -37 -206 -66 -28 -14 -52 -24 -53
-22 -3 3 -233 403 -273 475 -24 43 -147 257 -162 283 -13 22 -290 505 -327
570 -17 30 -95 166 -174 302 l-142 247 58 83 c31 46 82 119 112 163 31 44 70
100 87 125 17 25 55 80 84 123 30 42 55 77 58 77 2 0 25 -12 51 -26z m3729
-120 c166 -47 317 -173 391 -324 52 -105 72 -199 67 -305 -6 -133 -36 -225
-107 -330 -163 -245 -470 -341 -750 -235 -133 50 -270 175 -331 302 -32 67
-45 101 -48 120 0 4 -5 22 -10 40 -11 38 -13 173 -4 233 26 162 148 341 293
429 61 37 152 72 223 85 65 12 210 4 276 -15z m-1707 -529 c65 -6 173 -14 270
-20 47 -3 101 -8 120 -10 19 -3 78 -7 130 -10 130 -8 126 -6 125 -67 0 -70 31
-217 62 -298 31 -77 84 -170 129 -227 37 -46 41 -58 20 -70 -8 -4 -38 -30 -68
-58 -71 -65 -214 -194 -258 -233 -20 -17 -56 -50 -81 -74 -25 -24 -74 -68
-109 -98 -35 -30 -68 -60 -74 -65 -23 -22 -146 -133 -231 -210 -50 -44 -101
-91 -116 -105 -14 -14 -46 -43 -70 -64 -73 -65 -222 -200 -241 -218 -24 -24
-32 -23 -81 11 -87 59 -269 131 -333 131 -13 0 -24 6 -25 13 0 6 -1 271 -2
588 l-2 576 55 12 c64 15 177 66 237 107 123 84 245 247 288 382 7 24 8 24
108 17 56 -3 122 -8 147 -10z m-2410 -532 c0 -2 16 -29 35 -59 19 -30 35 -57
35 -59 0 -3 32 -60 71 -128 40 -67 83 -142 96 -167 14 -25 42 -74 63 -110 184
-311 507 -886 501 -890 -16 -10 -124 -156 -132 -177 -5 -13 -12 -23 -17 -23
-5 0 -41 16 -81 35 -39 19 -73 35 -75 35 -2 0 -48 21 -103 46 -94 44 -169 79
-298 139 -242 112 -321 149 -327 154 -4 3 2 42 13 86 26 105 28 281 5 387 -45
210 -167 402 -333 528 l-63 48 113 161 c61 88 147 212 191 276 l78 115 114
-196 c63 -109 114 -199 114 -201z m-945 -296 c133 -39 204 -78 294 -162 196
-181 250 -498 125 -739 -59 -114 -131 -189 -249 -261 -230 -138 -537 -102
-740 87 -82 77 -135 158 -172 267 -23 65 -27 93 -27 191 0 100 4 126 28 195
34 98 80 173 149 244 132 136 270 191 462 187 61 -2 119 -6 130 -9z m2483
-1112 c159 -18 336 -129 431 -269 106 -157 135 -372 76 -551 -66 -197 -237
-358 -435 -411 -85 -22 -225 -25 -308 -6 -67 15 -180 62 -204 85 -7 7 -34 29
-60 50 -91 75 -170 201 -203 326 -21 81 -21 227 0 306 35 134 107 246 219 341
94 79 182 117 311 132 71 8 79 8 173 -3z"/>
</g>
</svg>
