<svg xmlns="http://www.w3.org/2000/svg" width="882" height="190" viewBox="0 0 233.36222 50.270838" version="1.1">
    <g aria-label="BreathNote" style="fill:#eceff4">
      <path
         d="m 54.226248,41.716433 3.02857,-13.156901 q 1.10882,-4.815922 3.37611,-7.728645 3.971895,-5.097265 8.887114,-5.097265 2.780327,0 4.302886,1.52256 1.257767,1.257767 1.257767,3.227164 0,0.77783 -0.198595,1.688056 -0.612334,2.829975 -3.607804,4.733174 0.76128,0.347541 1.373613,1.042623 1.373614,1.539109 1.373614,3.657453 0,0.844027 -0.215144,1.803902 -0.794379,3.309912 -3.359561,5.378607 -2.813426,2.26729 -6.768771,2.26729 h -3.194065 l 0.0331,-0.165496 1.853551,-2.647929 h 1.952848 q 2.416236,0 4.319436,-1.621857 1.357064,-1.15847 1.820451,-3.111318 0.182046,-0.76128 0.182046,-1.423262 0,-1.075722 -0.496487,-1.853551 -1.075722,-1.688055 -3.574705,-1.688055 h -3.194066 l 0.0331,-0.165496 1.853551,-2.64793 h 1.952848 q 1.671506,0 2.912723,-1.075721 1.12537,-0.976424 1.489461,-2.565182 0.115847,-0.513037 0.115847,-0.976424 0,-0.893677 -0.479938,-1.572209 -0.72818,-0.992973 -2.383136,-0.992973 -3.078219,0 -5.69305,3.574705 -1.638406,2.234191 -2.61483,6.437779 l -2.681029,11.667441 -3.491957,1.48946 z" />
      <path
         d="m 76.02202,41.716433 2.250741,-9.764241 q 0.794379,-3.458858 2.482434,-5.610301 2.99547,-3.822949 6.669473,-3.822949 h 2.234191 l -0.04965,0.165496 -1.8701,2.64793 h -0.976425 q -1.8701,0 -3.475407,2.184542 -0.992974,1.357064 -1.704605,4.435282 l -1.9032,8.274781 -3.491957,1.48946 z" />
      <path
         d="m 102.00483,34.815266 q -0.66198,1.588758 -1.57221,2.747228 -2.978917,3.822948 -6.686019,3.822948 -3.607804,0 -4.882121,-3.822948 -0.330991,-0.992974 -0.330991,-2.28384 0,-1.522559 0.430289,-3.326462 0.76128,-3.37611 2.482434,-5.610301 2.945822,-3.822949 6.669473,-3.822949 2.829975,0 4.170495,1.770804 1.04262,1.373613 1.04262,2.945821 0,0.595785 -0.14895,1.208118 -0.61233,2.532083 -2.74723,4.418733 -2.11834,1.870101 -5.229658,1.870101 h -1.274316 l 0.04965,-0.165496 1.837001,-2.64793 q 1.787353,0 2.780326,-0.959874 0.976424,-0.943325 1.373614,-2.548633 0.0993,-0.397189 0.0993,-0.76128 0,-0.810928 -0.446922,-1.390163 -0.661982,-0.926775 -2.167992,-0.926775 -2.019047,0 -3.475408,2.184542 -1.059172,1.588758 -1.704605,4.435282 -0.463388,2.052146 -0.463388,3.326462 0,0.645433 0.115847,1.108821 0.628884,2.184542 2.482434,2.184542 1.88665,0 3.475408,-2.184542 l 3.955426,-1.572209 z" />
      <path
         d="m 112.43106,41.385442 q -3.67401,0 -4.88212,-3.822948 -0.33099,-1.042623 -0.33099,-2.350038 0,-1.472911 0.41373,-3.260264 0.82748,-3.491957 2.48244,-5.610301 2.97892,-3.822949 6.68602,-3.822949 3.7402,0 4.88212,3.822949 0.31444,1.059172 0.31444,2.350038 0,1.472911 -0.41374,3.260263 l -1.43981,6.222635 q -0.16549,0.728181 0.62889,0.728181 h 1.27431 l -0.0331,0.165496 -1.85355,2.647929 q -3.45886,0 -3.45886,-2.482434 0,-0.479937 0.1324,-1.059172 l 1.43981,-6.222635 q 0.46339,-2.052145 0.46339,-3.326461 0,-0.628884 -0.11585,-1.108821 -0.61233,-2.184542 -2.48243,-2.184542 -1.8701,0 -3.47541,2.184542 -1.00952,1.373614 -1.72115,4.435282 -0.46339,2.002497 -0.46339,3.276813 0,0.678532 0.1324,1.15847 0.59578,2.167992 2.44933,2.184542 h 1.27432 l -0.0496,0.165495 z" />
      <path
         d="m 131.03277,41.716433 q -3.45886,0 -3.45886,-2.482434 0,-0.479937 0.1324,-1.059172 l 2.89617,-12.511468 h -4.25324 l 0.0331,-0.165496 1.85355,-2.647929 h 3.01202 l 1.37362,-5.957842 3.49195,-1.489461 h 0.1655 l -1.72115,7.447303 h 4.25323 l -0.0331,0.165495 -1.85355,2.64793 h -3.01202 l -2.89617,12.511468 q -0.1655,0.728181 0.62888,0.728181 h 1.27432 l -0.0331,0.165496 z" />
      <path
         d="m 138.09943,41.716433 5.72614,-24.824341 3.49196,-1.489461 h 0.1655 l -2.0356,8.837466 q 1.91975,-1.721155 4.05464,-1.721155 3.82295,0 4.88212,3.822949 0.2979,1.075722 0.2979,2.333488 0,1.50601 -0.41374,3.276813 -0.92678,3.971895 -4.71663,6.288834 h 4.08774 l -0.0331,0.165495 -1.85355,2.64793 h -7.74519 l 0.0331,-0.165496 1.85355,-2.647929 q 2.35004,-1.406713 3.35956,-2.714128 1.25777,-1.621857 1.7046,-3.574706 0.47994,-2.085244 0.47994,-3.37611 0,-0.628883 -0.11585,-1.059172 -0.59578,-2.184542 -2.49898,-2.184542 -1.85355,0 -3.45886,2.184542 -0.99297,1.357064 -1.7046,4.435282 l -1.9032,8.274781 -3.49196,1.48946 z" />
      <path
         d="m 162.02256,41.449163 3.02857,-13.156901 q 1.10882,-4.815922 3.37611,-7.728645 3.97189,-5.097265 8.88711,-5.097265 4.93177,0 6.53708,5.097265 0.41374,1.307416 0.41374,3.01202 0,2.085245 -0.61234,4.716625 -1.14192,4.91522 -3.34301,7.331456 -1.37361,1.50601 -2.76377,2.350038 h 4.70007 l -0.0331,0.165495 -1.85355,2.64793 h -9.15191 l 0.0331,-0.165496 1.85355,-2.647929 q 2.41624,-0.76128 4.28634,-3.111318 2.0356,-2.565182 2.96237,-6.570176 0.59579,-2.581731 0.59579,-4.418733 0,-1.141919 -0.2317,-2.019046 -0.94332,-3.574705 -4.03809,-3.574705 -3.09477,0 -5.69305,3.574705 -1.63841,2.25074 -2.61483,6.437779 l -2.68103,11.667441 -3.49196,1.48946 z" />
      <path
         d="m 190.3223,31.684922 q -0.46338,2.052146 -0.46338,3.326462 0,0.645433 0.11584,1.108821 0.62889,2.184542 2.48244,2.184542 1.85355,0 3.4754,-2.184542 1.02608,-1.390163 1.72116,-4.435283 0.46339,-2.035596 0.46339,-3.309912 0,-0.678532 -0.1324,-1.12537 -0.56269,-2.184542 -2.48243,-2.184542 -1.9363,0 -3.52506,2.217641 -0.95988,1.340515 -1.65496,4.402183 z m -3.30991,0.01655 q 0.79438,-3.475408 2.48244,-5.626851 2.99547,-3.822949 6.66947,-3.822949 3.674,0 4.88212,3.822949 0.33099,1.042622 0.33099,2.350038 0,1.439812 -0.41374,3.260263 -0.84403,3.541606 -2.48243,5.610302 -3.02857,3.822948 -6.68603,3.822948 -3.6078,0 -4.88212,-3.806399 -0.33099,-1.009523 -0.33099,-2.25074 0,-1.456362 0.43029,-3.359561 z" />
      <path
         d="m 209.91699,41.449163 q -3.45886,0 -3.45886,-2.482434 0,-0.479937 0.1324,-1.059172 l 2.89617,-12.511468 h -4.25324 l 0.0331,-0.165496 1.85355,-2.647929 h 3.01202 l 1.37362,-5.957842 3.49195,-1.489461 h 0.1655 l -1.72116,7.447303 h 4.25324 l -0.0331,0.165495 -1.85355,2.64793 h -3.01202 l -2.89617,12.511468 q -0.1655,0.728181 0.62888,0.728181 h 1.27432 l -0.0331,0.165496 z" />
      <path
         d="m 231.44796,34.547996 q -0.66198,1.588758 -1.57221,2.747228 -2.97892,3.822948 -6.68602,3.822948 -3.6078,0 -4.88212,-3.822948 -0.33099,-0.992974 -0.33099,-2.28384 0,-1.522559 0.43029,-3.326462 0.76128,-3.37611 2.48243,-5.610301 2.94582,-3.822949 6.66947,-3.822949 2.82998,0 4.17049,1.770804 1.04263,1.373613 1.04263,2.945821 0,0.595785 -0.14895,1.208118 -0.61233,2.532083 -2.74723,4.418733 -2.11834,1.870101 -5.22966,1.870101 h -1.27431 l 0.0496,-0.165496 1.83701,-2.64793 q 1.78735,0 2.78032,-0.959874 0.97643,-0.943325 1.37362,-2.548633 0.0993,-0.397189 0.0993,-0.76128 0,-0.810928 -0.44684,-1.390163 -0.66198,-0.926775 -2.16799,-0.926775 -2.01904,0 -3.47541,2.184542 -1.05917,1.588758 -1.7046,4.435282 -0.46339,2.052146 -0.46339,3.326462 0,0.645433 0.11585,1.108821 0.62888,2.184542 2.48243,2.184542 1.88665,0 3.47541,-2.184542 l 3.95535,-1.572209 z" />
    </g>
    <g style="fill:none;stroke:#eceff4;stroke-width:2" transform="matrix(0.92914784,0,0,0.92914784,-7.0663645,-3.6645587)">
      <circle cx="34.52" cy="11.43" r="5.8200002" />
      <circle cx="53.630001" cy="31.6" r="5.8200002" />
      <circle cx="34.52" cy="50.57" r="5.8200002" />
      <circle cx="15.16" cy="42.029999" r="5.8200002" />
      <circle cx="15.16" cy="19.27" r="5.8200002" />
      <circle cx="34.509998" cy="29.27" r="4.6999998" />
      <line x1="20.17" y1="16.299999" x2="28.9" y2="12.93" />
      <line x1="38.599998" y1="15.59" x2="49.48" y2="27.52" />
      <line x1="50.07" y1="36.200001" x2="38.669998" y2="46.490002" />
      <line x1="18.360001" y1="24.129999" x2="30.91" y2="46.009998" />
      <line x1="20.309999" y1="44.740002" x2="28.700001" y2="48.630001" />
      <line x1="17.34" y1="36.630001" x2="31.370001" y2="16.32" />
      <line x1="20.52" y1="21.549999" x2="30.34" y2="27.1" />
      <line x1="39.220001" y1="29.799999" x2="47.810001" y2="30.450001" />
      <line x1="34.509998" y1="33.98" x2="34.52" y2="44.740002" />
    </g>
</svg>
